<svg xmlns="http://www.w3.org/2000/svg" version="1.1" xmlns:xlink="http://www.w3.org/1999/xlink" xmlns:svgjs="http://svgjs.dev/svgjs" width="2000" height="1500" viewBox="0 0 2000 1500"><rect width="2000" height="1500" fill="#f2f0e4"></rect><g transform="matrix(0.4982561036372696,0,0,0.4982561036372696,501.7438963627305,248.22207969635696)"><svg viewBox="0 0 280 281" data-background-color="#f2f0e4" preserveAspectRatio="xMidYMid meet" height="2007" width="2000" xmlns="http://www.w3.org/2000/svg" xmlns:xlink="http://www.w3.org/1999/xlink"><g id="tight-bounds" transform="matrix(1,0,0,1,0,0.49988490298255783)"><svg viewBox="0 0 280 280" height="280" width="280"><g><svg viewBox="0 0 280 280" height="280" width="280"><g><svg viewBox="0 0 280 280" height="280" width="280"><g id="textblocktransform"><svg viewBox="0 0 280 280" height="280" width="280" id="textblock"><g><svg viewBox="0 0 280 280" height="280" width="280"><g transform="matrix(1,0,0,1,84.56282835497467,85.44388770988942)"><svg viewBox="0 0 110.87434329005065 109.11222458022117" height="109.11222458022117" width="110.87434329005065"><g id="icon-0"><svg xmlns="http://www.w3.org/2000/svg" xmlns:xlink="http://www.w3.org/1999/xlink" version="1.1" x="0" y="0" viewBox="4.935202354706927 5.695449555959597 89.97753934509002 88.54753217806106" enable-background="new 0 0 100 100" xml:space="preserve" height="109.11222458022117" width="110.87434329005065" class="icon-jxe-0" data-fill-palette-color="accent" id="jxe-0"><path d="M27.5 64.3C25.6 61.4 24.6 58.1 23.9 54.8 23.7 53.6 23.4 52.5 23.3 51.3S22.6 49.5 21.4 49.2C19.7 48.7 18.1 48 16.4 47.5 12 46.1 9.2 42.7 7.4 38.8 5.6 35 4.5 31 5.1 26.5 5.7 21.8 7.8 18.2 11.1 15.2 16.3 10.5 22.5 8.8 29.3 10.2 34.9 11.3 39.2 14.6 42.2 19.4 43.1 20.8 44 21.4 45.6 21.3 47.3 21.2 48.9 21.3 50.6 21.4 53.7 21.5 56.6 22.4 59 24.4 62.2 27 64.9 30.1 66.7 33.7 68.4 37 70.6 39.9 73 42.6 73.6 43.2 74.1 43.4 74.9 43.2 75.4 43.1 75.9 43 76.3 42.8 82.6 39.8 87.8 35.5 90.3 28.8 91.1 26.6 91.6 24.2 90.9 21.8 90.7 21.1 90.6 20.4 90.4 19.7 89.8 16.1 87.8 13.5 84.8 11.8 80.8 9.5 76.3 8.9 71.8 10 69.8 10.5 68 11.8 66.1 12.8 65.4 11.7 65.4 10.8 66.5 10.1 69.1 8.4 71.3 7 73.7 6 75.2 5.5 77 5.7 78.7 6 83.7 6.9 88 9.3 91.1 13.5 92.3 15.1 93.2 17.1 93.8 19 94.5 21.2 95 23.5 94.9 25.8 94.8 28.3 94.7 30.9 92.9 33 92.7 33.2 92.5 33.5 92.4 33.8 91.1 37.3 88.3 39.6 85.8 42.2 85.1 42.9 84.1 43.3 83.2 43.8 81.3 44.8 79.5 45.8 77.5 46.9 77.8 47.6 77.9 48 78.2 48.4 81.4 52.9 84.7 57.5 87.9 62 89.4 64.1 90.7 66.2 92 68.4 93.7 71.4 94.2 74.7 93.5 78.1 93.2 79.5 92.9 80.9 92.7 82.3 92.2 85.6 90.2 87.7 87.6 89.5 84.4 91.7 80.9 92.8 77.1 93.2L69.3 94.1C65.9 94.5 62.6 94.1 59.6 92.4 58.4 91.7 57.3 91.7 55.9 92.1 53.1 92.8 50.4 93.7 47.5 94 44.8 94.3 41.9 93.9 39.2 93.9 33.7 93.8 28.7 92.1 23.8 89.9 18.3 87.5 15.5 82.8 14.7 77 14.4 74.9 14.5 72.7 14.6 70.5 14.7 68.1 16 66.3 18.3 65.4 20.3 64.6 22.3 64.3 24.4 64.5 25.3 64.6 26.3 64.7 27.2 64.8 27.3 64.6 27.4 64.4 27.5 64.3M65.2 87.2C66.4 87.4 67.1 87.7 67.8 87.6 69.9 87.5 71.9 87.2 74 87 77.8 86.7 81.3 85.4 84.4 83.2 85.7 82.3 86.7 81.2 87.2 79.7 87.6 78.5 87.9 77.2 88.3 76 89.8 71.5 88.4 67.7 85.5 64.3 81.3 59.4 77 54.6 72.8 49.7 71.7 48.4 70.5 47.7 68.7 47.6 67.1 47.5 65.4 47.2 63.8 46.6 61.8 45.9 59.8 45 57.8 44.2 55.2 43.2 52.9 41.8 51.2 39.6 50.8 39 50.3 38.5 49.7 38.1 47 36 45 33.3 43.7 30.1 43.2 29 42.6 28.5 41.3 28.8 40.4 29.1 39.4 29.1 38.5 29.4 37.8 29.7 37 30.1 36.6 30.7 34.8 33.6 33.1 36.6 31.5 39.6 30.8 40.9 30.4 42.4 30.8 43.7 33.4 44.1 35.8 44.2 38 44.8 43.3 46.2 48.1 48.7 52.7 51.7 59.7 56.3 64.9 62.5 67.9 70.3 70.2 76.1 70.4 81.8 65.2 87.2M35.1 48.3C35.1 48.4 35 48.5 35 48.6 34.4 48.6 33.7 48.7 33.1 48.7 32.9 48.7 32.6 48.8 32.4 48.8 30.9 49.2 30.4 49.7 30.9 51.2 31.5 53.2 31.9 55.3 33 57 35 60.2 36.8 63.5 38 67 38.4 68.2 39.1 69 40.1 69.8 43 71.9 45.9 74 48.5 76.4 50.9 78.6 53 81.1 55.2 83.5 56.9 85.3 57.4 85.5 59.5 84.3 61.8 83 63.7 81.1 65 78.8 65.8 77.3 66.4 75.8 66 74 64.8 68.9 62.1 64.5 58.3 61 53.2 56.3 46.9 53.1 40.7 50 39 49.1 37 48.8 35.1 48.3M39.2 21.5C38.8 19.2 36.9 18.1 35.4 16.8 31.7 13.5 27.5 11.7 22.5 12.4 18 13.1 14.3 15.3 11.4 18.9 10.8 19.6 10.2 20.4 9.9 21.3 8.4 25.9 8.9 30.4 10.7 34.8 12.7 39.5 16.6 41.9 21 43.8 21.6 44.1 22.3 44 22.9 44 23.1 43.5 23.3 43.3 23.3 43.1 24.1 38.2 26.9 34.1 28.6 29.6 28.8 29 29.2 28.5 29.6 28 32.1 25.3 34.8 22.9 38.5 21.9 38.8 21.9 39 21.7 39.2 21.5M39.6 73.9C39.2 75.4 38.8 76.6 38.4 77.8 37.8 79.9 36.5 81.7 35 83.2 33.8 84.3 32.2 84.6 31.6 83.8 31.1 83.1 31.5 82.2 32.9 81.1 34.6 79.7 35 78.4 34.2 76.3 33.9 75.6 33.4 74.9 33.2 74.1 32.4 71.2 30.3 70.2 27.6 69.7 23.6 69.1 19.8 70.9 18.1 74.6 17.7 75.4 17.6 76.7 18 77.6 19.6 81.1 21.9 84.1 25.6 85.5 32.9 88.4 40.4 89.7 48.3 87.7 49.8 87.3 51.3 86.9 53.1 86.3 49.5 80.9 44.7 77.4 39.6 73.9M47.1 28.7C47.5 30.9 49.6 34.3 51.4 36.3 55.5 40.9 61.1 42.6 66.5 44.6 66.8 44.7 67.3 44.4 68 44.3 65.9 39.1 63.1 34.7 58.5 31.5 55.1 29 51.3 28.1 47.1 28.7" fill="#b66f39" data-fill-palette-color="accent"></path></svg></g></svg></g><g id="text-0"><path d="M31.869 103.693v0c-0.598 1.815-1.685 3.214-3.26 4.197-1.577 0.989-3.513 1.521-5.808 1.596-2.287 0.07-4.829-0.356-7.626-1.278v0c-2.691-0.887-4.912-2.074-6.665-3.56-1.753-1.486-2.958-3.106-3.617-4.86-0.658-1.754-0.709-3.475-0.152-5.164v0c0.33-1.002 0.713-1.854 1.147-2.556 0.432-0.696 0.894-1.291 1.385-1.786v0c0.266-0.234 0.572-0.294 0.918-0.179v0l5.624 1.728c0.416 0.137 0.575 0.354 0.477 0.65v0c-0.087 0.265-0.304 0.382-0.65 0.351v0l-1.473-0.077c-2.086-0.115-3.606 0.044-4.559 0.478-0.957 0.425-1.59 1.104-1.897 2.036v0c-0.565 1.714 0.023 3.49 1.764 5.329 1.748 1.841 4.628 3.423 8.642 4.746v0c2.747 0.906 5.158 1.383 7.231 1.43 2.082 0.044 3.753-0.237 5.014-0.841 1.253-0.6 2.049-1.417 2.39-2.45v0c0.364-1.103 0.313-2.104-0.152-3.005-0.465-0.901-1.601-1.904-3.409-3.01v0l-1.649-1.037c-0.347-0.198-0.443-0.447-0.289-0.744v0c0.14-0.254 0.392-0.321 0.758-0.201v0l5.908 2.105c0.347 0.114 0.552 0.36 0.616 0.737v0c0.103 0.684 0.114 1.456 0.033 2.317-0.079 0.854-0.313 1.87-0.701 3.048z" fill="#3d2f28" data-fill-palette-color="primary"></path><path d="M45.68 77.049v0c-0.743 1.083-1.776 1.803-3.098 2.159-1.326 0.362-2.804 0.358-4.434-0.012-1.628-0.36-3.229-1.081-4.805-2.161v0c-1.576-1.081-2.814-2.308-3.714-3.682-0.904-1.368-1.43-2.747-1.579-4.137-0.147-1.38 0.143-2.601 0.871-3.663v0c0.747-1.089 1.787-1.808 3.12-2.156 1.343-0.35 2.815-0.35 4.417 0 1.602 0.351 3.191 1.066 4.767 2.148v0c1.576 1.081 2.83 2.308 3.764 3.68 0.939 1.376 1.474 2.753 1.607 4.131 0.136 1.373-0.169 2.604-0.916 3.693zM44.884 76.503v0c1.52-2.216-0.253-5.062-5.32-8.537v0c-5.039-3.457-8.319-4.077-9.839-1.861v0c-1.516 2.21 0.245 5.044 5.285 8.5v0c5.067 3.475 8.358 4.108 9.874 1.898z" fill="#3d2f28" data-fill-palette-color="primary"></path><path d="M65.725 54.953v0c-0.858 0.742-1.883 1.124-3.075 1.145-1.187 0.026-2.451-0.32-3.791-1.038-1.34-0.718-2.652-1.821-3.937-3.306v0c-1.432-1.657-2.428-3.317-2.989-4.981-0.566-1.659-0.713-3.199-0.44-4.618 0.277-1.415 0.943-2.577 1.997-3.489v0c0.899-0.777 1.753-1.208 2.564-1.295v0c0.317-0.029 0.602 0.103 0.853 0.394v0l3.145 3.517c0.256 0.296 0.266 0.546 0.03 0.75v0c-0.216 0.187-0.462 0.176-0.738-0.033v0c-1.205-0.836-2.184-1.436-2.938-1.801-0.764-0.366-1.379-0.545-1.845-0.537-0.471 0.013-0.873 0.162-1.204 0.449v0c-0.392 0.338-0.6 0.914-0.627 1.726-0.036 0.811 0.242 1.843 0.833 3.094 0.582 1.251 1.582 2.698 3.001 4.339v0c1.805 2.088 3.431 3.427 4.879 4.018 1.448 0.59 2.602 0.514 3.46-0.228v0c0.683-0.59 1.01-1.368 0.982-2.335-0.033-0.962-0.524-2.327-1.473-4.094v0c-0.126-0.268-0.102-0.478 0.074-0.629v0c0.236-0.204 0.493-0.084 0.771 0.359v0c0.964 1.552 1.581 2.869 1.85 3.952 0.265 1.078 0.263 1.983-0.007 2.716-0.274 0.728-0.732 1.37-1.375 1.925z" fill="#3d2f28" data-fill-palette-color="primary"></path><path d="M90.058 39.252v0c-1.179 0.58-2.432 0.701-3.759 0.362-1.333-0.335-2.619-1.063-3.858-2.183-1.242-1.112-2.285-2.525-3.128-4.24v0c-0.843-1.715-1.321-3.391-1.432-5.03-0.117-1.636 0.1-3.096 0.652-4.38 0.548-1.275 1.4-2.197 2.555-2.766v0c1.185-0.583 2.444-0.699 3.777-0.349 1.342 0.353 2.625 1.075 3.849 2.166 1.224 1.091 2.258 2.494 3.102 4.209v0c0.843 1.715 1.335 3.399 1.476 5.052 0.143 1.66-0.065 3.123-0.625 4.389-0.554 1.263-1.424 2.187-2.609 2.77zM89.632 38.385v0c2.411-1.186 2.261-4.536-0.451-10.048v0c-2.697-5.483-5.251-7.632-7.663-6.446v0c-2.405 1.183-2.259 4.516 0.438 9.999v0c2.712 5.513 5.27 7.678 7.676 6.495z" fill="#3d2f28" data-fill-palette-color="primary"></path><path d="M115.982 30.363v0c-1.069 0.204-2.009 0.035-2.822-0.505-0.812-0.541-1.325-1.368-1.538-2.483v0c-0.208-1.088-0.062-2.187 0.436-3.295 0.498-1.108 1.269-2.167 2.312-3.176 1.042-1.016 2.277-1.91 3.704-2.682v0c0.314-0.161 0.439-0.408 0.375-0.74v0l-0.66-3.461c-0.232-1.219-0.59-2.049-1.072-2.491-0.477-0.449-1.045-0.611-1.704-0.485v0c-0.632 0.121-1.154 0.517-1.566 1.19-0.413 0.666-0.606 1.693-0.578 3.079v0c0.032 0.838-0.127 1.48-0.474 1.924-0.348 0.445-0.74 0.708-1.177 0.792v0c-0.704 0.134-1.124-0.154-1.259-0.865v0c-0.139-0.73-0.069-1.496 0.21-2.299 0.279-0.803 0.704-1.566 1.276-2.29 0.57-0.73 1.226-1.348 1.967-1.854 0.746-0.514 1.524-0.848 2.331-1.002v0c2.509-0.478 4.042 0.742 4.599 3.662v0l2.219 11.634c0.203 1.062 0.571 1.543 1.105 1.44v0c0.326-0.062 0.587-0.342 0.783-0.838 0.196-0.497 0.192-1.279-0.012-2.348v0c-0.077-0.404 0.051-0.638 0.383-0.701v0c0.3-0.057 0.491 0.129 0.572 0.559v0c0.353 1.851 0.286 3.252-0.201 4.203-0.489 0.944-1.14 1.494-1.955 1.649v0c-0.606 0.116-1.132-0.041-1.579-0.469-0.453-0.427-0.807-0.971-1.061-1.631v0c-0.075-0.249-0.208-0.362-0.399-0.34-0.19 0.03-0.353 0.186-0.488 0.468v0c-0.446 0.956-0.944 1.71-1.494 2.261-0.55 0.551-1.295 0.916-2.233 1.094zM116.674 28.418v0c0.658-0.126 1.22-0.476 1.685-1.051 0.471-0.576 0.808-1.289 1.01-2.138 0.208-0.857 0.218-1.781 0.029-2.771v0l-0.527-2.767c-0.092-0.482-0.386-0.571-0.882-0.268v0c-1.439 0.849-2.489 1.842-3.15 2.982-0.667 1.14-0.871 2.395-0.61 3.764v0c0.333 1.747 1.148 2.496 2.445 2.249z" fill="#3d2f28" data-fill-palette-color="primary"></path><path d="M152.529 28.527v0c-1.905-0.153-3.521-0.878-4.847-2.176-1.334-1.299-2.308-3.054-2.922-5.267-0.608-2.205-0.795-4.776-0.559-7.713v0c0.227-2.824 0.855-5.263 1.885-7.317 1.03-2.054 2.32-3.608 3.869-4.661 1.549-1.054 3.21-1.51 4.982-1.368v0c1.052 0.084 1.97 0.255 2.755 0.511 0.778 0.256 1.466 0.564 2.062 0.924v0c0.29 0.203 0.42 0.486 0.391 0.851v0l-0.351 5.872c-0.035 0.436-0.208 0.642-0.519 0.617v0c-0.278-0.022-0.443-0.205-0.495-0.548v0l-0.273-1.45c-0.381-2.054-0.894-3.493-1.541-4.317-0.639-0.83-1.448-1.284-2.427-1.363v0c-1.799-0.144-3.386 0.846-4.761 2.972-1.376 2.133-2.233 5.306-2.571 9.519v0c-0.231 2.884-0.126 5.338 0.317 7.364 0.449 2.033 1.116 3.591 2.001 4.673 0.879 1.076 1.861 1.657 2.945 1.744v0c1.157 0.093 2.119-0.193 2.885-0.856 0.766-0.664 1.472-2.005 2.12-4.024v0l0.618-1.847c0.111-0.384 0.329-0.536 0.655-0.457v0c0.28 0.076 0.405 0.305 0.374 0.689v0l-0.65 6.238c-0.029 0.364-0.22 0.621-0.571 0.773v0c-0.64 0.261-1.388 0.454-2.244 0.579-0.849 0.125-1.891 0.138-3.128 0.038z" fill="#3d2f28" data-fill-palette-color="primary"></path><path d="M181.616 35.372l-6.304-2.49c-0.29-0.115-0.383-0.305-0.277-0.57v0c0.095-0.241 0.284-0.33 0.566-0.269v0l0.538 0.127c0.529 0.123 0.917 0.109 1.163-0.044 0.24-0.155 0.459-0.486 0.659-0.991v0l8.147-20.623c0.171-0.432 0.219-0.752 0.144-0.96-0.069-0.205-0.26-0.399-0.574-0.58v0l-0.715-0.41c-0.246-0.154-0.321-0.352-0.226-0.593v0c0.093-0.234 0.281-0.324 0.566-0.268v0c0.731 0.118 1.363 0.171 1.895 0.16 0.532-0.011 0.99-0.051 1.375-0.121v0c0.478-0.09 0.812-0.096 1.003-0.021v0c0.265 0.105 0.322 0.349 0.172 0.732v0l-3.771 9.543c-0.085 0.216-0.061 0.372 0.073 0.467 0.127 0.093 0.337 0.087 0.628-0.019v0c1.247-0.485 2.277-0.745 3.09-0.78 0.822-0.039 1.618 0.094 2.39 0.398v0c1.123 0.444 1.859 1.173 2.207 2.188 0.351 1.009 0.236 2.248-0.345 3.716v0l-4.619 11.691c-0.2 0.506-0.26 0.893-0.179 1.159 0.074 0.265 0.349 0.534 0.825 0.808v0l0.743 0.422c0.248 0.148 0.325 0.342 0.23 0.583v0c-0.105 0.265-0.302 0.341-0.592 0.226v0l-6.044-2.388c-0.333-0.132-0.447-0.33-0.343-0.595v0c0.095-0.241 0.281-0.331 0.557-0.272v0l0.538 0.127c0.529 0.123 0.917 0.109 1.163-0.044 0.24-0.155 0.459-0.486 0.659-0.992v0l4.465-11.302c0.463-1.172 0.574-2.085 0.332-2.736-0.242-0.652-0.758-1.134-1.548-1.446v0c-0.771-0.305-1.55-0.356-2.336-0.153-0.786 0.203-1.504 0.601-2.152 1.194-0.652 0.584-1.153 1.321-1.504 2.209v0l-3.811 9.645c-0.2 0.506-0.262 0.899-0.187 1.178 0.069 0.277 0.344 0.539 0.824 0.786v0l0.928 0.495c0.248 0.148 0.325 0.342 0.23 0.583v0c-0.105 0.265-0.299 0.342-0.583 0.23z" fill="#3d2f28" data-fill-palette-color="primary"></path><path d="M207.655 49.835v0c-0.866-0.659-1.369-1.471-1.509-2.437-0.14-0.966 0.133-1.9 0.82-2.803v0c0.671-0.882 1.585-1.508 2.742-1.878 1.157-0.37 2.46-0.504 3.908-0.402 1.452 0.097 2.942 0.418 4.47 0.963v0c0.33 0.126 0.597 0.054 0.802-0.215v0l2.134-2.804c0.751-0.987 1.13-1.808 1.136-2.462 0.015-0.655-0.244-1.186-0.777-1.592v0c-0.512-0.39-1.156-0.513-1.932-0.37-0.772 0.138-1.664 0.68-2.677 1.627v0c-0.603 0.584-1.185 0.895-1.748 0.934-0.563 0.038-1.021-0.077-1.375-0.347v0c-0.57-0.434-0.636-0.939-0.199-1.514v0c0.45-0.591 1.067-1.051 1.851-1.38 0.784-0.329 1.636-0.523 2.556-0.581 0.924-0.064 1.822 0.011 2.694 0.224 0.881 0.212 1.649 0.567 2.303 1.065v0c2.033 1.547 2.149 3.503 0.349 5.869v0l-7.173 9.424c-0.655 0.861-0.766 1.456-0.333 1.785v0c0.264 0.201 0.646 0.208 1.146 0.022 0.5-0.186 1.08-0.712 1.739-1.578v0c0.249-0.327 0.508-0.389 0.778-0.183v0c0.243 0.185 0.232 0.452-0.034 0.799v0c-1.141 1.499-2.228 2.385-3.261 2.659-1.029 0.267-1.873 0.15-2.534-0.353v0c-0.491-0.374-0.726-0.87-0.706-1.488 0.015-0.622 0.183-1.249 0.505-1.879v0c0.136-0.222 0.131-0.397-0.014-0.524-0.149-0.122-0.374-0.139-0.674-0.05v0c-1.009 0.307-1.903 0.44-2.68 0.399-0.777-0.041-1.546-0.351-2.307-0.93zM209.566 49.05v0c0.533 0.406 1.169 0.59 1.907 0.551 0.743-0.035 1.499-0.26 2.266-0.677 0.777-0.418 1.47-1.028 2.081-1.83v0l1.706-2.241c0.297-0.391 0.167-0.669-0.391-0.835v0c-1.593-0.504-3.034-0.621-4.322-0.351-1.294 0.266-2.364 0.953-3.208 2.061v0c-1.077 1.415-1.09 2.522-0.039 3.322z" fill="#3d2f28" data-fill-palette-color="primary"></path><path d="M244.343 60.927v0c2.076-0.29 3.577 0.155 4.504 1.333v0c0.525 0.668 0.716 1.319 0.574 1.954-0.138 0.64-0.45 1.151-0.935 1.533v0c-0.386 0.303-0.777 0.455-1.175 0.454-0.397 0-0.755-0.204-1.075-0.61v0c-0.254-0.323-0.363-0.622-0.325-0.897 0.028-0.275 0.109-0.537 0.243-0.786 0.13-0.254 0.223-0.5 0.28-0.739 0.057-0.239-0.027-0.502-0.252-0.789v0c-0.287-0.365-0.777-0.537-1.47-0.516-0.687 0.017-1.48 0.205-2.378 0.566-0.898 0.36-1.814 0.907-2.748 1.641v0l-7.058 5.547c-0.428 0.336-0.68 0.644-0.756 0.923-0.08 0.274 0.025 0.639 0.316 1.094v0l0.552 0.896c0.14 0.253 0.118 0.451-0.065 0.594v0c-0.245 0.193-0.487 0.138-0.724-0.164v0l-4.041-5.141c-0.242-0.308-0.251-0.55-0.026-0.726v0c0.183-0.143 0.407-0.105 0.673 0.116v0l0.352 0.318c0.416 0.357 0.763 0.536 1.042 0.536 0.275-0.005 0.626-0.175 1.053-0.511v0l10.219-8.033c0.365-0.287 0.57-0.541 0.616-0.762 0.044-0.212-0.023-0.475-0.203-0.79v0l-0.418-0.709c-0.188-0.282-0.181-0.504 0.023-0.664v0c0.162-0.127 0.403-0.051 0.724 0.229v0c0.591 0.548 1.13 0.901 1.616 1.058 0.487 0.158 1.035 0.292 1.646 0.403v0c0.326 0.039 0.538 0.121 0.637 0.246v0c0.143 0.183 0.093 0.37-0.153 0.563v0l-1.643 1.292c-0.141 0.111-0.18 0.238-0.117 0.383 0.063 0.145 0.227 0.197 0.492 0.158z" fill="#3d2f28" data-fill-palette-color="primary"></path><path d="M245.157 96.353l-2.361-6.098c-0.141-0.365-0.079-0.599 0.187-0.702v0c0.217-0.084 0.42 0.019 0.61 0.308v0l0.243 0.408c0.293 0.463 0.573 0.735 0.839 0.817 0.264 0.076 0.65 0.015 1.158-0.181v0l12.121-4.694c0.433-0.168 0.704-0.351 0.812-0.549 0.104-0.19 0.117-0.461 0.036-0.814v0l-0.192-0.801c-0.097-0.325-0.025-0.534 0.216-0.628v0c0.192-0.074 0.4 0.069 0.625 0.43v0c0.405 0.697 0.817 1.192 1.237 1.485 0.419 0.293 0.905 0.582 1.456 0.867v0c0.3 0.133 0.479 0.273 0.537 0.421v0c0.084 0.217-0.02 0.381-0.311 0.494v0l-1.624 0.629c-0.167 0.065-0.266 0.185-0.298 0.361-0.025 0.173 0.079 0.314 0.313 0.423v0c1.321 0.62 2.292 1.233 2.911 1.84 0.623 0.598 1.079 1.272 1.369 2.02v0c0.271 0.699 0.322 1.391 0.153 2.076-0.16 0.688-0.562 1.306-1.203 1.853v0c-0.169 0.151-0.235 0.322-0.196 0.513 0.032 0.194 0.166 0.345 0.399 0.454v0c1.297 0.629 2.252 1.241 2.867 1.836 0.618 0.586 1.072 1.253 1.362 2.002v0c0.39 1.009 0.329 1.979-0.186 2.91-0.508 0.93-1.498 1.679-2.971 2.25v0l-11.722 4.539c-0.507 0.196-0.832 0.415-0.974 0.654-0.144 0.234-0.155 0.619-0.033 1.155v0l0.194 0.832c0.06 0.283-0.031 0.471-0.272 0.564v0c-0.266 0.103-0.455 0.009-0.568-0.281v0l-2.39-6.172c-0.129-0.334-0.061-0.553 0.205-0.656v0c0.241-0.093 0.435-0.016 0.582 0.234v0l0.268 0.472c0.29 0.528 0.575 0.834 0.857 0.917 0.281 0.083 0.676 0.027 1.183-0.17v0l11.332-4.387c1.176-0.455 1.923-0.987 2.243-1.594 0.32-0.608 0.339-1.273 0.059-1.998v0c-0.278-0.718-0.755-1.287-1.43-1.709-0.673-0.415-1.447-0.66-2.323-0.733-0.871-0.082-1.753 0.049-2.643 0.394v0l-9.671 3.744c-0.507 0.196-0.83 0.421-0.967 0.673-0.14 0.246-0.145 0.647-0.015 1.202v0l0.198 0.841c0.06 0.283-0.031 0.471-0.273 0.564v0c-0.266 0.103-0.455 0.009-0.568-0.281v0l-2.375-6.135c-0.132-0.34-0.065-0.562 0.201-0.665v0c0.241-0.093 0.435-0.016 0.582 0.234v0l0.272 0.481c0.268 0.472 0.542 0.747 0.82 0.824 0.276 0.071 0.668 0.008 1.176-0.188v0l11.332-4.388c1.176-0.455 1.923-0.987 2.243-1.594 0.32-0.608 0.339-1.273 0.059-1.997v0c-0.28-0.724-0.757-1.294-1.43-1.709-0.673-0.415-1.447-0.66-2.322-0.734-0.871-0.082-1.753 0.049-2.644 0.394v0l-9.671 3.745c-0.507 0.196-0.838 0.417-0.992 0.662-0.157 0.239-0.163 0.618-0.018 1.138v0l0.266 1.017c0.06 0.283-0.019 0.466-0.236 0.55v0c-0.291 0.113-0.506-0.011-0.644-0.369z" fill="#3d2f28" data-fill-palette-color="primary"></path><path d="M3.655 143.613c0-6.043 4.899-10.942 10.942-10.942 6.043 0 10.942 4.899 10.942 10.942 0 6.043-4.899 10.942-10.942 10.941-6.043 0-10.942-4.899-10.942-10.941z" fill="#3d2f28" data-fill-palette-color="primary"></path><path d="M254.461 143.613c0-6.043 4.899-10.942 10.942-10.942 6.043 0 10.942 4.899 10.942 10.942 0 6.043-4.899 10.942-10.942 10.941-6.043 0-10.942-4.899-10.942-10.941z" fill="#3d2f28" data-fill-palette-color="primary"></path></g><g id="text-1"><path d="M62.261 255.611v0c-1.581-1.165-2.6-2.674-3.056-4.527-0.462-1.857-0.361-3.917 0.302-6.181 0.659-2.259 1.886-4.606 3.681-7.042v0c1.732-2.35 3.603-4.14 5.614-5.37 2.015-1.235 3.984-1.894 5.907-1.976 1.918-0.086 3.614 0.413 5.089 1.5v0c0.876 0.646 1.586 1.292 2.13 1.94 0.544 0.648 0.978 1.29 1.302 1.924v0c0.146 0.338 0.109 0.657-0.111 0.957v0l-3.488 4.934c-0.268 0.363-0.53 0.45-0.786 0.261v0c-0.235-0.173-0.282-0.422-0.141-0.747v0l0.547-1.414c0.779-1.997 1.112-3.533 0.996-4.607-0.115-1.074-0.579-1.91-1.39-2.508v0c-1.496-1.102-3.418-1.093-5.769 0.027-2.351 1.111-4.818 3.418-7.4 6.921v0c-1.763 2.393-2.998 4.594-3.705 6.604-0.71 2.015-0.974 3.733-0.792 5.153 0.187 1.424 0.729 2.466 1.626 3.127v0c0.961 0.709 1.956 0.98 2.985 0.815 1.028-0.165 2.375-0.953 4.041-2.363v0l1.536-1.279c0.3-0.273 0.574-0.286 0.82-0.039v0c0.204 0.216 0.187 0.484-0.049 0.805v0l-3.949 5.089c-0.22 0.299-0.525 0.421-0.912 0.366v0c-0.702-0.121-1.459-0.358-2.271-0.709-0.812-0.351-1.731-0.905-2.757-1.661z" fill="#3d2f28" data-fill-palette-color="secondary"></path><path d="M77.019 264.594v0c-1.189-0.633-2.042-1.607-2.56-2.92-0.518-1.313-0.684-2.823-0.498-4.528 0.186-1.705 0.74-3.421 1.66-5.148v0c0.923-1.733 2.034-3.141 3.333-4.224 1.298-1.083 2.646-1.778 4.043-2.086 1.397-0.308 2.678-0.152 3.843 0.468v0c1.195 0.636 2.048 1.617 2.56 2.943 0.512 1.325 0.681 2.828 0.507 4.509-0.174 1.681-0.723 3.389-1.646 5.123v0c-0.92 1.728-2.03 3.147-3.329 4.259-1.299 1.112-2.644 1.817-4.035 2.113-1.391 0.297-2.684 0.127-3.878-0.509zM77.487 263.715v0c2.436 1.298 5.137-0.838 8.104-6.407v0c2.957-5.551 3.218-8.976 0.782-10.273v0c-2.43-1.295-5.124 0.834-8.081 6.385v0c-2.966 5.569-3.235 9.001-0.805 10.295z" fill="#3d2f28" data-fill-palette-color="secondary"></path><path d="M92.083 271.43v0c-1.089-0.423-1.93-1.17-2.525-2.24-0.595-1.071-0.888-2.388-0.879-3.951 0.009-1.562 0.378-3.281 1.106-5.154v0c0.817-2.103 1.844-3.811 3.08-5.125 1.236-1.313 2.564-2.185 3.984-2.616 1.42-0.431 2.795-0.388 4.125 0.129v0c1.138 0.442 1.942 1.011 2.412 1.706v0c0.18 0.269 0.198 0.589 0.054 0.961v0l-1.684 4.556c-0.144 0.371-0.365 0.499-0.662 0.383v0c-0.272-0.106-0.383-0.334-0.332-0.684v0c0.182-1.495 0.257-2.676 0.223-3.543-0.033-0.867-0.168-1.51-0.403-1.929-0.236-0.419-0.564-0.71-0.985-0.874v0c-0.489-0.19-1.109-0.104-1.862 0.259-0.753 0.362-1.556 1.111-2.41 2.245-0.854 1.135-1.684 2.741-2.491 4.819v0c-1.026 2.641-1.458 4.761-1.297 6.362 0.161 1.6 0.783 2.611 1.865 3.031v0c0.866 0.336 1.729 0.259 2.589-0.233 0.86-0.492 1.866-1.596 3.017-3.312v0c0.178-0.237 0.378-0.312 0.6-0.226v0c0.297 0.115 0.313 0.403 0.049 0.862v0c-0.945 1.626-1.844 2.821-2.696 3.587-0.852 0.765-1.676 1.2-2.471 1.303-0.795 0.104-1.597-0.001-2.407-0.316z" fill="#3d2f28" data-fill-palette-color="secondary"></path><path d="M107 276.021v0c-1.304-0.336-2.363-1.082-3.174-2.237-0.812-1.155-1.328-2.583-1.548-4.284-0.219-1.701-0.085-3.499 0.404-5.394v0c0.49-1.902 1.239-3.531 2.247-4.889 1.008-1.357 2.154-2.35 3.44-2.977 1.286-0.628 2.568-0.777 3.846-0.448v0c1.311 0.338 2.371 1.091 3.179 2.259 0.809 1.168 1.326 2.589 1.553 4.264 0.226 1.675 0.094 3.464-0.397 5.366v0c-0.489 1.895-1.234 3.536-2.235 4.922-1.001 1.386-2.143 2.387-3.425 3.002-1.282 0.615-2.579 0.754-3.89 0.416zM107.249 275.057v0c2.673 0.689 4.797-2.022 6.372-8.131v0c1.57-6.091 1.019-9.481-1.654-10.17v0c-2.666-0.687-4.785 2.014-6.355 8.105v0c-1.575 6.11-1.029 9.509 1.637 10.196z" fill="#3d2f28" data-fill-palette-color="secondary"></path><path d="M121.015 278.768v0c-1.106-0.135-1.973-0.595-2.599-1.379-0.626-0.785-0.869-1.757-0.728-2.916v0c0.138-1.133 0.624-2.163 1.459-3.091 0.834-0.921 1.92-1.714 3.258-2.38 1.338-0.666 2.824-1.153 4.459-1.462v0c0.355-0.064 0.554-0.267 0.596-0.609v0l0.438-3.596c0.154-1.265 0.066-2.191-0.263-2.78-0.329-0.588-0.837-0.924-1.522-1.007v0c-0.652-0.079-1.284 0.144-1.896 0.671-0.612 0.527-1.122 1.474-1.529 2.842v0c-0.234 0.827-0.592 1.405-1.074 1.734-0.481 0.329-0.946 0.466-1.393 0.412v0c-0.738-0.09-1.062-0.504-0.972-1.242v0c0.093-0.764 0.403-1.495 0.929-2.192 0.526-0.698 1.183-1.313 1.969-1.846 0.787-0.532 1.624-0.932 2.512-1.198 0.881-0.267 1.744-0.349 2.587-0.246v0c2.608 0.318 3.728 1.991 3.358 5.021v0l-1.471 12.082c-0.135 1.106 0.074 1.693 0.627 1.761v0c0.342 0.042 0.687-0.15 1.033-0.576 0.346-0.426 0.586-1.192 0.721-2.298v0c0.051-0.422 0.248-0.611 0.591-0.57v0c0.316 0.039 0.447 0.282 0.392 0.73v0c-0.234 1.923-0.739 3.272-1.515 4.046-0.776 0.774-1.586 1.11-2.429 1.008v0c-0.632-0.077-1.102-0.395-1.408-0.954-0.306-0.559-0.482-1.202-0.527-1.929v0c0.006-0.267-0.089-0.419-0.285-0.456-0.196-0.037-0.402 0.065-0.619 0.306v0c-0.738 0.792-1.464 1.372-2.177 1.74-0.707 0.368-1.547 0.493-2.522 0.374zM122.303 277.081v0c0.685 0.083 1.344-0.084 1.976-0.502 0.639-0.417 1.193-1.011 1.661-1.783 0.468-0.772 0.765-1.671 0.89-2.698v0l0.351-2.875c0.061-0.501-0.198-0.679-0.777-0.536v0c-1.671 0.385-3.01 1.03-4.016 1.937-1.005 0.9-1.595 2.062-1.768 3.484v0c-0.221 1.818 0.34 2.809 1.683 2.973z" fill="#3d2f28" data-fill-palette-color="secondary"></path><path d="M144.777 280v0c-1.964 0.02-3.685-0.574-5.163-1.78-1.485-1.206-2.643-2.913-3.475-5.121-0.831-2.201-1.262-4.815-1.292-7.84v0c-0.029-2.919 0.39-5.475 1.257-7.666 0.867-2.198 2.044-3.909 3.531-5.132 1.481-1.222 3.137-1.843 4.968-1.861v0c1.088-0.011 2.044 0.079 2.869 0.27 0.825 0.191 1.557 0.442 2.198 0.755v0c0.32 0.183 0.482 0.46 0.486 0.831v0l0.179 6.039c0.005 0.451-0.152 0.678-0.471 0.682v0c-0.292 0.003-0.479-0.168-0.562-0.512v0l-0.413-1.459c-0.578-2.064-1.236-3.491-1.973-4.28-0.738-0.789-1.611-1.178-2.62-1.168v0c-1.858 0.019-3.389 1.182-4.593 3.489-1.211 2.301-1.795 5.628-1.751 9.981v0c0.03 2.972 0.367 5.474 1.01 7.504 0.644 2.037 1.466 3.568 2.464 4.594 1.006 1.025 2.066 1.532 3.181 1.521v0c1.194-0.012 2.153-0.393 2.875-1.144 0.722-0.75 1.325-2.19 1.808-4.317v0l0.458-1.946c0.076-0.399 0.286-0.573 0.632-0.524v0c0.292 0.05 0.441 0.274 0.444 0.673v0l-0.094 6.44c0.004 0.372-0.166 0.652-0.51 0.841v0c-0.634 0.325-1.381 0.591-2.241 0.799-0.861 0.208-1.928 0.318-3.202 0.331z" fill="#3d2f28" data-fill-palette-color="secondary"></path><path d="M161.994 277.827l-6.857 1.17c-0.314 0.054-0.495-0.063-0.545-0.351v0c-0.045-0.262 0.072-0.443 0.351-0.544v0l0.536-0.173c0.536-0.172 0.869-0.391 0.999-0.655 0.13-0.264 0.148-0.671 0.054-1.221v0l-3.836-22.466c-0.08-0.471-0.207-0.779-0.38-0.924-0.173-0.145-0.447-0.213-0.822-0.203v0l-0.845 0.023c-0.297-0.003-0.467-0.136-0.512-0.397v0c-0.045-0.262 0.072-0.443 0.352-0.545v0c0.706-0.282 1.289-0.57 1.75-0.864 0.461-0.294 0.844-0.575 1.149-0.842v0c0.374-0.333 0.665-0.517 0.875-0.554v0c0.288-0.049 0.467 0.136 0.538 0.554v0l1.774 10.39c0.04 0.235 0.142 0.359 0.306 0.372 0.164 0.012 0.345-0.106 0.545-0.356v0c0.831-1.084 1.597-1.861 2.298-2.331 0.701-0.47 1.469-0.776 2.307-0.919v0c1.23-0.21 2.268 0.037 3.115 0.74 0.847 0.703 1.407 1.853 1.679 3.449v0l2.176 12.744c0.094 0.549 0.245 0.921 0.453 1.114 0.208 0.193 0.593 0.282 1.156 0.267v0l0.883-0.029c0.297 0.003 0.467 0.136 0.513 0.397v0c0.049 0.288-0.083 0.458-0.398 0.512v0l-6.592 1.126c-0.366 0.063-0.574-0.05-0.623-0.338v0c-0.045-0.262 0.072-0.443 0.351-0.545v0l0.536-0.172c0.536-0.172 0.869-0.391 0.999-0.655 0.13-0.264 0.148-0.671 0.054-1.221v0l-2.103-12.312c-0.219-1.282-0.608-2.144-1.168-2.587-0.56-0.443-1.272-0.591-2.136-0.443v0c-0.837 0.143-1.548 0.513-2.132 1.111-0.578 0.597-0.995 1.328-1.251 2.192-0.256 0.865-0.302 1.781-0.137 2.75v0l1.794 10.507c0.094 0.549 0.246 0.927 0.457 1.133 0.21 0.206 0.595 0.289 1.152 0.248v0l1.07-0.062c0.297 0.003 0.467 0.136 0.512 0.397v0c0.049 0.288-0.083 0.458-0.397 0.512z" fill="#3d2f28" data-fill-palette-color="secondary"></path><path d="M178.495 274.529v0c-1.063 0.336-2.042 0.278-2.938-0.176-0.895-0.454-1.519-1.238-1.871-2.351v0c-0.344-1.088-0.329-2.227 0.045-3.418 0.377-1.184 1.036-2.357 1.976-3.518 0.941-1.161 2.091-2.221 3.451-3.18v0c0.297-0.205 0.393-0.472 0.289-0.801v0l-1.093-3.454c-0.385-1.214-0.849-2.021-1.393-2.42-0.544-0.399-1.145-0.494-1.802-0.285v0c-0.626 0.198-1.109 0.664-1.447 1.398-0.338 0.734-0.409 1.807-0.212 3.22v0c0.13 0.85 0.044 1.524-0.258 2.023-0.301 0.499-0.667 0.817-1.097 0.953v0c-0.708 0.224-1.175-0.018-1.399-0.727v0c-0.232-0.734-0.254-1.527-0.065-2.38 0.189-0.853 0.531-1.685 1.027-2.496 0.495-0.811 1.091-1.522 1.788-2.133 0.691-0.609 1.442-1.041 2.251-1.297v0c2.505-0.793 4.218 0.265 5.14 3.175v0l3.673 11.604c0.336 1.063 0.77 1.51 1.302 1.342v0c0.329-0.104 0.562-0.422 0.701-0.953 0.138-0.531 0.039-1.328-0.298-2.39v0c-0.128-0.405-0.028-0.659 0.301-0.763v0c0.304-0.096 0.524 0.071 0.66 0.501v0c0.585 1.847 0.685 3.284 0.3 4.31-0.385 1.027-0.982 1.668-1.792 1.924v0c-0.607 0.192-1.166 0.098-1.676-0.283-0.51-0.381-0.937-0.893-1.28-1.537v0c-0.105-0.245-0.255-0.344-0.449-0.296-0.194 0.047-0.339 0.226-0.436 0.535v0c-0.343 1.027-0.763 1.856-1.259 2.486-0.49 0.628-1.203 1.091-2.139 1.387zM178.967 272.459v0c0.658-0.208 1.188-0.634 1.59-1.276 0.408-0.644 0.666-1.415 0.771-2.311 0.106-0.897 0.003-1.838-0.31-2.825v0l-0.874-2.761c-0.152-0.481-0.462-0.536-0.929-0.165v0c-1.361 1.043-2.311 2.186-2.85 3.429-0.541 1.236-0.596 2.537-0.163 3.903v0c0.553 1.746 1.474 2.414 2.765 2.006z" fill="#3d2f28" data-fill-palette-color="secondary"></path><path d="M188.344 251.654v0c0.224-2.138 1.038-3.523 2.442-4.154v0c0.799-0.359 1.498-0.39 2.097-0.092 0.6 0.298 1.03 0.737 1.291 1.318v0c0.207 0.46 0.261 0.887 0.162 1.281-0.099 0.394-0.391 0.7-0.875 0.917v0c-0.387 0.174-0.712 0.211-0.976 0.111-0.263-0.1-0.504-0.246-0.721-0.439-0.218-0.193-0.44-0.348-0.667-0.464-0.227-0.116-0.51-0.098-0.849 0.055v0c-0.436 0.196-0.727 0.64-0.874 1.331-0.153 0.695-0.161 1.535-0.023 2.521 0.138 0.986 0.457 2.035 0.958 3.148v0l3.784 8.414c0.229 0.508 0.471 0.836 0.726 0.983 0.255 0.147 0.648 0.13 1.178-0.05v0l1.021-0.328c0.288-0.071 0.481 0.002 0.579 0.22v0c0.131 0.29 0.014 0.517-0.349 0.681v0l-6.127 2.756c-0.363 0.163-0.604 0.112-0.724-0.155v0c-0.098-0.218-0.006-0.434 0.276-0.648v0l0.403-0.268c0.465-0.325 0.729-0.626 0.794-0.903 0.065-0.277-0.017-0.669-0.245-1.177v0l-5.484-12.19c-0.196-0.436-0.396-0.702-0.599-0.8-0.204-0.097-0.486-0.094-0.847 0.01v0l-0.812 0.234c-0.326 0.117-0.543 0.055-0.651-0.187v0c-0.087-0.194 0.047-0.414 0.401-0.661v0c0.696-0.459 1.184-0.911 1.463-1.356 0.28-0.446 0.55-0.96 0.812-1.544v0c0.12-0.316 0.252-0.506 0.397-0.572v0c0.218-0.098 0.392-0.002 0.523 0.289v0l0.882 1.961c0.076 0.169 0.195 0.24 0.357 0.21 0.162-0.029 0.254-0.18 0.277-0.452z" fill="#3d2f28" data-fill-palette-color="secondary"></path><path d="M209.58 260.002l-5.61 3.697c-0.332 0.219-0.579 0.207-0.739-0.037v0c-0.131-0.199-0.075-0.427 0.169-0.684v0l0.355-0.329c0.407-0.395 0.62-0.735 0.64-1.018 0.02-0.283-0.124-0.658-0.43-1.123v0l-7.356-11.16c-0.263-0.399-0.503-0.63-0.719-0.694-0.217-0.064-0.495-0.015-0.834 0.145v0l-0.764 0.36c-0.303 0.168-0.527 0.141-0.673-0.081v0c-0.117-0.177-0.02-0.416 0.291-0.716v0c0.614-0.564 1.023-1.088 1.228-1.572 0.205-0.485 0.39-1.036 0.555-1.654v0c0.068-0.331 0.168-0.54 0.301-0.627v0c0.199-0.131 0.387-0.064 0.563 0.201v0l0.985 1.496c0.102 0.155 0.245 0.228 0.43 0.218 0.184-0.01 0.303-0.144 0.355-0.402v0c0.333-1.459 0.736-2.567 1.207-3.322 0.471-0.756 1.051-1.36 1.738-1.813v0c0.643-0.424 1.326-0.628 2.051-0.613 0.725 0.015 1.436 0.285 2.133 0.812v0c0.183 0.133 0.369 0.162 0.557 0.085 0.188-0.076 0.309-0.243 0.361-0.5v0c0.354-1.441 0.76-2.536 1.221-3.284 0.46-0.748 1.034-1.349 1.721-1.802v0c0.925-0.61 1.911-0.759 2.959-0.448 1.047 0.311 2.016 1.142 2.907 2.494v0l7.115 10.795c0.307 0.465 0.594 0.745 0.862 0.838 0.268 0.093 0.657 0.02 1.166-0.22v0l0.797-0.383c0.273-0.116 0.482-0.064 0.629 0.158v0c0.161 0.244 0.108 0.453-0.158 0.629v0l-5.676 3.741c-0.31 0.204-0.546 0.185-0.706-0.059v0c-0.146-0.222-0.112-0.435 0.102-0.64v0l0.422-0.373c0.46-0.399 0.702-0.749 0.726-1.051 0.024-0.302-0.118-0.685-0.425-1.151v0l-6.873-10.428c-0.716-1.086-1.413-1.723-2.094-1.911-0.674-0.191-1.344-0.068-2.008 0.371v0c-0.665 0.438-1.134 1.041-1.407 1.809-0.273 0.768-0.353 1.599-0.239 2.494 0.113 0.895 0.44 1.752 0.98 2.572v0l5.866 8.9c0.307 0.465 0.6 0.741 0.879 0.827 0.279 0.086 0.685 0.002 1.216-0.253v0l0.797-0.382c0.273-0.116 0.482-0.064 0.628 0.158v0c0.161 0.244 0.108 0.453-0.158 0.628v0l-5.65 3.725c-0.31 0.204-0.546 0.185-0.707-0.059v0c-0.146-0.222-0.112-0.435 0.103-0.64v0l0.422-0.373c0.422-0.373 0.639-0.707 0.651-1.002 0.013-0.294-0.134-0.674-0.441-1.139v0l-6.874-10.429c-0.716-1.086-1.413-1.723-2.093-1.91-0.68-0.188-1.352-0.062-2.017 0.376v0c-0.665 0.438-1.134 1.041-1.407 1.809-0.267 0.764-0.344 1.594-0.231 2.488 0.113 0.895 0.44 1.752 0.98 2.572v0l5.866 8.9c0.307 0.465 0.598 0.75 0.874 0.855 0.275 0.104 0.661 0.026 1.155-0.237v0l0.955-0.486c0.273-0.116 0.475-0.075 0.606 0.125v0c0.175 0.266 0.097 0.508-0.235 0.727z" fill="#3d2f28" data-fill-palette-color="secondary"></path></g></svg></g></svg></g></svg></g></svg></g><defs></defs></svg><rect width="280" height="280" fill="none" stroke="none" visibility="hidden"></rect></g></svg></g></svg>