<svg width="19" height="19" viewBox="0 0 19 19" fill="none" xmlns="http://www.w3.org/2000/svg">
<g id="phone-call" clip-path="url(#clip0_512_12041)">
<path id="Vector" d="M11.5027 3.80495C12.2394 3.94868 12.9164 4.30898 13.4472 4.83973C13.9779 5.37047 14.3382 6.04752 14.4819 6.78422M11.5027 0.787964C13.0332 0.957998 14.4605 1.64341 15.5501 2.73166C16.6398 3.81991 17.327 5.24632 17.4989 6.77668M16.7447 12.7956V15.0583C16.7455 15.2684 16.7025 15.4763 16.6183 15.6688C16.5342 15.8612 16.4108 16.034 16.256 16.176C16.1012 16.318 15.9185 16.4261 15.7195 16.4934C15.5205 16.5607 15.3096 16.5857 15.1004 16.5668C12.7795 16.3146 10.5501 15.5215 8.59128 14.2513C6.76889 13.0932 5.22382 11.5482 4.0658 9.72578C2.79111 7.75811 1.99784 5.51784 1.75026 3.18647C1.73141 2.97789 1.7562 2.76768 1.82305 2.56921C1.88989 2.37074 1.99733 2.18836 2.13852 2.03369C2.27971 1.87902 2.45156 1.75544 2.64313 1.67083C2.8347 1.58621 3.04179 1.54241 3.25121 1.54221H5.51395C5.87999 1.53861 6.23485 1.66823 6.51239 1.90691C6.78993 2.1456 6.97121 2.47706 7.02244 2.83951C7.11795 3.56364 7.29507 4.27464 7.55042 4.95895C7.65189 5.22891 7.67386 5.5223 7.6137 5.80437C7.55355 6.08643 7.41379 6.34533 7.211 6.55041L6.25311 7.5083C7.32682 9.39659 8.8903 10.9601 10.7786 12.0338L11.7365 11.0759C11.9416 10.8731 12.2005 10.7333 12.4825 10.6732C12.7646 10.613 13.058 10.635 13.3279 10.7365C14.0122 10.9918 14.7232 11.1689 15.4474 11.2644C15.8138 11.3161 16.1484 11.5007 16.3876 11.783C16.6268 12.0653 16.7539 12.4257 16.7447 12.7956Z" stroke="#DFB760" stroke-width="1.50849" stroke-linecap="round" stroke-linejoin="round"/>
</g>
<defs>
<clipPath id="clip0_512_12041">
<rect width="18.1019" height="18.1019" fill="white" transform="translate(0.152344 0.0339355)"/>
</clipPath>
</defs>
</svg>
